<?xml version="1.0" encoding="UTF-8" standalone="no"?>
<!-- Created with Inkscape (http://www.inkscape.org/) -->

<svg
   width="109.99998"
   height="109.99998"
   viewBox="0 0 29.104162 29.104162"
   version="1.1"
   id="svg1"
   xml:space="preserve"
   inkscape:version="1.3.2 (091e20e, 2023-11-25, custom)"
   sodipodi:docname="kroman-palette.svg"
   xmlns:inkscape="http://www.inkscape.org/namespaces/inkscape"
   xmlns:sodipodi="http://sodipodi.sourceforge.net/DTD/sodipodi-0.dtd"
   xmlns="http://www.w3.org/2000/svg"
   xmlns:svg="http://www.w3.org/2000/svg"><sodipodi:namedview
     id="namedview1"
     pagecolor="#505050"
     bordercolor="#eeeeee"
     borderopacity="1"
     inkscape:showpageshadow="0"
     inkscape:pageopacity="0"
     inkscape:pagecheckerboard="0"
     inkscape:deskcolor="#505050"
     inkscape:document-units="px"
     showgrid="true"
     inkscape:zoom="4"
     inkscape:cx="61.75"
     inkscape:cy="57.625"
     inkscape:window-width="1920"
     inkscape:window-height="1017"
     inkscape:window-x="-8"
     inkscape:window-y="-8"
     inkscape:window-maximized="1"
     inkscape:current-layer="layer1"><inkscape:grid
       id="grid1"
       units="px"
       originx="-22.522989"
       originy="-29.104167"
       spacingx="0.26458332"
       spacingy="0.26458333"
       empcolor="#0099e5"
       empopacity="0.30196078"
       color="#0099e5"
       opacity="0.14901961"
       empspacing="5"
       dotted="false"
       gridanglex="30"
       gridanglez="30"
       visible="true" /></sodipodi:namedview><defs
     id="defs1"><inkscape:path-effect
       effect="fillet_chamfer"
       id="path-effect5"
       is_visible="true"
       lpeversion="1"
       nodesatellites_param="F,0,0,1,0,9.2604153,0,1 @ F,0,0,1,0,0,0,1 @ F,0,0,1,0,9.1509991,0,1 @ F,0,0,1,0,9.2604179,0,1"
       radius="0"
       unit="px"
       method="auto"
       mode="F"
       chamfer_steps="1"
       flexible="false"
       use_knot_distance="true"
       apply_no_radius="true"
       apply_with_radius="true"
       only_selected="false"
       hide_knots="false" /><inkscape:path-effect
       effect="fillet_chamfer"
       id="path-effect1"
       is_visible="true"
       lpeversion="1"
       nodesatellites_param="F,0,0,1,0,5.2916677,0,1 @ F,0,0,1,0,0,0,1 @ F,0,0,1,0,3.9687508,0,1 @ F,0,0,1,0,3.9687488,0,1"
       radius="0"
       unit="px"
       method="auto"
       mode="F"
       chamfer_steps="1"
       flexible="false"
       use_knot_distance="true"
       apply_no_radius="true"
       apply_with_radius="true"
       only_selected="false"
       hide_knots="false" /></defs><g
     inkscape:label="Layer 1"
     inkscape:groupmode="layer"
     id="layer1"
     transform="translate(-22.522988,-29.104165)"><path
       style="fill:none;fill-opacity:1;stroke:#fff7d4;stroke-width:2.64583;stroke-dasharray:none;stroke-opacity:1"
       id="rect1"
       width="26.458332"
       height="26.458332"
       x="23.8125"
       y="30.42708"
       sodipodi:type="rect"
       d="m 29.104168,30.42708 21.166664,0 v 22.489581 a 3.9687508,3.9687508 135 0 1 -3.968751,3.968751 H 27.781249 A 3.9687488,3.9687488 45 0 1 23.8125,52.916663 V 35.718748 a 5.2916677,5.2916677 135 0 1 5.291668,-5.291668 z"
       inkscape:path-effect="#path-effect1"
       transform="translate(0.03340257)" /><path
       id="rect5"
       style="fill:none;fill-opacity:1;stroke:#fff7d4;stroke-width:2.64583;stroke-dasharray:none;stroke-opacity:1"
       d="m 46.192666,35.723401 -1e-6,7.932851 a 9.1509991,9.1509991 0 0 1 -9.150999,9.150999 v 0 a 9.2604179,9.2604179 0 0 1 -9.260418,-9.260418 9.2058707,9.2058707 0 0 1 9.260415,-9.151001 v 0 h 7.828065"
       transform="translate(0.10941621)" /><path
       style="fill:#fff7d4;fill-opacity:1;stroke:none;stroke-width:2.64583;stroke-dasharray:none;stroke-opacity:1"
       d="m 44.979163,34.39583 1.322917,1.322917 1.322917,-0.0069 -1.322917,-1.316069 1.322917,-1.322917 H 46.30208 Z"
       id="path6" /><path
       id="path7"
       style="fill:none;fill-opacity:1;stroke:#fff7d4;stroke-width:1.95398;stroke-dasharray:none;stroke-opacity:1"
       d="m 35.184634,48.895338 a 5.6375899,5.6375914 0 0 1 -3.699219,-5.293878 5.6375899,5.6375914 0 0 1 5.63759,-5.637592 5.6375899,5.6375914 0 0 1 5.63759,5.637592 v 0 a 5.6375899,5.6375914 0 0 1 -3.795719,5.328221" /><path
       id="path9"
       style="fill:#fff7d4;fill-opacity:1;stroke:#fff7d4;stroke-width:1.32292;stroke-dasharray:none;stroke-opacity:1"
       inkscape:transform-center-x="0.088964952"
       inkscape:transform-center-y="0.31137782"
       d="m 37.096443,40.721545 a 2.8796639,2.8796625 0 0 0 -2.879927,2.879927 2.8796639,2.8796625 0 0 0 0.0031,0.04599 l 5.755721,-0.03824 a 2.8796639,2.8796625 0 0 0 5.17e-4,-0.0078 2.8796639,2.8796625 0 0 0 -2.879411,-2.879927 z" /><rect
       style="fill:#fff7d4;fill-opacity:1;stroke:#000000;stroke-width:0;stroke-dasharray:none;stroke-opacity:1"
       id="rect10"
       width="1.5875"
       height="2.5572293"
       x="33.929718"
       y="47.978184" /><rect
       style="fill:#fff7d4;fill-opacity:1;stroke:#fff7d4;stroke-width:0;stroke-dasharray:none;stroke-opacity:1"
       id="rect10-6"
       width="1.5875"
       height="2.5303552"
       x="38.649837"
       y="48.005058" /><ellipse
       style="fill:#4c3d3d;fill-opacity:1;stroke:none;stroke-width:0;stroke-dasharray:none;stroke-opacity:1"
       id="path10"
       cx="37.075069"
       cy="52.883625"
       rx="1.2009619"
       ry="1.1362667" /></g></svg>
